<svg xmlns="http://www.w3.org/2000/svg" viewBox="0 0 301 512">
  <path d="M 195.8,495.3 L 188.5,491.0 L 181.4,486.5 L 174.4,481.7 L 167.6,476.6 L 156.2,466.5 L 146.2,455.1 L 137.9,442.4 L 131.2,428.8 L 127.3,416.1 L 125.8,403.1 L 126.6,389.9 L 129.8,377.1 L 132.8,370.2 L 136.6,363.7 L 141.3,357.8 L 146.7,352.6 L 149.8,350.4 L 153.1,348.8 L 156.6,347.8 L 160.3,347.3 L 167.9,346.6 L 175.5,345.2 L 182.9,343.2 L 190.0,340.4 L 196.9,336.8 L 202.9,332.0 L 208.1,326.3 L 212.2,319.8 L 214.3,316.5 L 216.7,313.5 L 219.6,311.0 L 222.9,308.9 L 223.2,308.6 L 223.4,308.3 L 223.4,308.0 L 223.4,307.6 L 223.2,307.3 L 222.9,307.0 L 222.5,306.9 L 222.1,307.0 L 217.8,308.0 L 213.4,308.8 L 209.0,309.2 L 204.5,309.4 L 196.4,310.1 L 188.4,311.8 L 180.7,314.4 L 173.3,318.0 L 168.4,321.2 L 163.9,324.9 L 159.8,329.0 L 156.0,333.5 L 153.5,337.0 L 150.8,340.4 L 147.9,343.7 L 144.9,346.9 L 141.2,350.9 L 137.7,355.1 L 134.5,359.4 L 131.5,364.0 L 129.0,369.0 L 126.7,374.2 L 124.9,379.5 L 123.3,384.9 L 123.3,385.0 L 123.2,385.1 L 123.1,385.1 L 123.0,385.2 L 122.8,385.1 L 122.8,385.1 L 122.7,385.0 L 122.7,384.8 L 122.5,378.6 L 122.6,372.4 L 123.0,366.2 L 123.7,360.0 L 124.6,351.6 L 125.8,343.3 L 127.3,335.1 L 129.2,326.9 L 132.1,315.9 L 135.3,305.0 L 138.8,294.2 L 142.6,283.5 L 148.7,267.5 L 154.5,251.4 L 160.0,235.3 L 165.2,219.0 L 166.7,213.1 L 168.6,207.2 L 170.8,201.5 L 173.4,196.0 L 176.2,191.3 L 179.8,187.2 L 184.0,183.8 L 188.9,181.3 L 196.4,178.5 L 203.7,175.0 L 210.6,171.0 L 217.2,166.4 L 223.7,159.9 L 228.8,152.3 L 232.6,144.0 L 234.8,135.0 L 235.5,129.9 L 236.9,125.0 L 238.8,120.2 L 241.3,115.7 L 241.4,115.3 L 241.4,114.8 L 241.3,114.5 L 241.0,114.1 L 240.6,113.9 L 240.2,113.8 L 239.8,113.9 L 239.4,114.0 L 235.7,116.8 L 231.9,119.3 L 227.8,121.5 L 223.6,123.4 L 220.2,124.5 L 216.9,125.9 L 213.7,127.3 L 210.4,128.8 L 203.9,132.4 L 197.8,136.5 L 192.2,141.3 L 187.1,146.7 L 183.1,152.0 L 179.8,157.8 L 177.3,164.0 L 175.7,170.4 L 175.0,173.4 L 174.3,176.4 L 173.7,179.4 L 173.0,182.4 L 172.0,185.9 L 171.0,189.5 L 169.9,193.0 L 168.7,196.5 L 167.1,200.5 L 165.6,204.5 L 164.3,208.6 L 163.0,212.6 L 160.6,219.6 L 158.3,226.5 L 156.0,233.5 L 153.9,240.5 L 151.2,247.5 L 148.6,254.5 L 145.9,261.6 L 143.3,268.6 L 139.9,277.9 L 136.5,287.2 L 133.1,296.6 L 129.8,305.9 L 128.2,311.4 L 126.8,317.0 L 125.6,322.6 L 124.6,328.2 L 124.5,328.5 L 124.3,328.7 L 124.0,328.9 L 123.7,329.0 L 123.4,328.9 L 123.1,328.7 L 122.9,328.5 L 122.8,328.2 L 121.6,323.5 L 120.7,318.7 L 120.0,313.9 L 119.5,309.1 L 119.1,303.7 L 118.5,298.2 L 117.5,292.9 L 116.2,287.6 L 113.3,279.1 L 109.1,271.3 L 103.6,264.4 L 96.9,258.4 L 89.3,253.5 L 81.2,249.4 L 72.8,246.1 L 64.0,243.7 L 61.4,243.1 L 58.8,242.5 L 56.2,242.1 L 53.5,241.8 L 51.5,241.6 L 49.6,241.2 L 47.7,240.7 L 45.9,239.9 L 45.6,239.8 L 45.3,239.9 L 45.1,240.0 L 44.9,240.2 L 44.8,240.4 L 44.8,240.7 L 44.8,241.0 L 45.0,241.2 L 50.9,246.0 L 56.1,251.6 L 60.5,257.7 L 64.3,264.3 L 67.5,273.2 L 71.9,281.5 L 77.5,289.1 L 84.2,295.8 L 88.8,299.4 L 93.7,302.6 L 98.8,305.5 L 104.1,308.0 L 108.1,310.4 L 111.6,313.4 L 114.6,316.9 L 117.0,320.9 L 118.8,326.3 L 120.0,331.9 L 120.5,337.5 L 120.3,343.3 L 119.6,348.1 L 118.9,353.0 L 118.3,357.8 L 117.6,362.7 L 116.8,374.8 L 116.9,386.9 L 117.9,398.9 L 120.0,410.8 L 122.1,419.7 L 124.9,428.4 L 128.4,436.8 L 132.6,445.0 L 132.7,445.1 L 132.7,445.3 L 132.6,445.5 L 132.5,445.6 L 132.4,445.7 L 132.2,445.7 L 132.0,445.7 L 131.8,445.6 L 125.0,439.7 L 118.1,433.9 L 111.1,428.2 L 103.9,422.8 L 98.1,417.3 L 92.9,411.3 L 88.6,404.6 L 85.0,397.5 L 79.9,385.8 L 73.6,374.7 L 66.1,364.3 L 57.6,354.7 L 49.5,347.5 L 40.7,341.2 L 31.2,336.0 L 21.2,332.0 L 18.5,331.1 L 15.8,330.3 L 13.0,329.7 L 10.2,329.2 L 9.9,329.2 L 9.6,329.3 L 9.3,329.4 L 9.1,329.7 L 9.0,330.0 L 9.0,330.4 L 9.1,330.7 L 9.3,331.0 L 14.4,336.9 L 18.6,343.4 L 21.7,350.5 L 23.8,358.0 L 26.6,371.2 L 32.1,383.3 L 40.1,393.9 L 50.3,402.7 L 57.0,407.0 L 64.0,410.7 L 71.4,413.8 L 79.0,416.2 L 83.9,417.4 L 88.6,419.0 L 93.1,421.1 L 97.5,423.7 L 101.1,426.4 L 104.7,429.2 L 108.2,432.0 L 111.7,434.9 L 122.7,444.0 L 133.4,453.4 L 143.7,463.1 L 153.6,473.2 L 161.1,479.8 L 169.1,485.5 L 177.7,490.4 L 186.8,494.3 L 188.9,495.0 L 191.0,495.7 L 193.2,496.2 L 195.3,496.6 L 195.6,496.6 L 195.8,496.6 L 196.0,496.4 L 196.1,496.2 L 196.2,495.9 L 196.1,495.7 L 196.0,495.5 L 195.8,495.3 Z" fill="#ece5d3"/>
  <path d="M 249.3,31.9 L 258.5,89.1 L 258.3,89.1 L 258.2,89.1 L 258.0,89.1 L 257.9,89.1 L 251.5,76.4 L 243.6,64.7 L 234.4,54.3 L 224.0,45.0 L 212.5,37.2 L 200.0,30.9 L 186.8,26.2 L 172.9,23.1 L 157.1,22.3 L 141.4,23.4 L 126.1,26.7 L 111.2,31.9 L 95.3,41.1 L 82.4,53.8 L 72.9,69.2 L 67.3,86.7 L 66.2,105.0 L 69.5,122.8 L 76.9,139.2 L 88.3,153.6 L 102.4,166.5 L 117.5,178.2 L 133.4,188.6 L 150.3,197.5 L 150.8,204.2 L 150.7,210.8 L 150.1,217.5 L 148.9,224.0 L 100.6,197.2 L 89.2,189.7 L 78.8,180.9 L 69.5,171.0 L 61.4,160.0 L 54.6,147.9 L 49.9,134.9 L 47.4,121.3 L 47.2,107.4 L 48.2,95.9 L 50.7,84.8 L 54.6,74.2 L 59.8,64.2 L 66.2,54.9 L 73.7,46.5 L 82.3,39.0 L 92.0,32.7 L 112.3,23.4 L 133.6,17.6 L 155.7,15.4 L 177.9,16.7 L 192.8,19.0 L 207.4,22.4 L 221.8,26.7 L 235.8,32.1 L 239.0,32.8 L 242.3,33.0 L 245.5,32.7 L 248.7,32.0 L 249.3,31.9 Z" fill="#859173"/>
  <path d="M 170.7,236.1 L 172.0,229.7 L 173.8,223.4 L 176.2,217.3 L 179.1,211.4 L 193.7,218.3 L 208.0,225.8 L 222.1,233.8 L 235.8,242.3 L 247.0,249.5 L 257.0,258.0 L 266.0,267.4 L 273.8,277.9 L 280.3,289.2 L 285.5,301.1 L 289.2,313.7 L 291.5,326.8 L 292.0,342.1 L 290.4,357.1 L 286.8,371.5 L 281.2,385.3 L 273.7,398.1 L 264.5,409.8 L 253.6,420.2 L 241.2,429.1 L 221.5,439.1 L 200.7,446.0 L 179.1,449.6 L 157.1,450.0 L 155.7,448.3 L 154.5,446.5 L 153.4,444.5 L 152.6,442.5 L 162.1,443.1 L 171.7,443.1 L 181.3,442.5 L 190.8,441.2 L 204.1,437.6 L 216.8,432.3 L 228.6,425.3 L 239.5,416.7 L 248.6,407.3 L 256.2,396.9 L 262.3,385.6 L 266.8,373.6 L 269.7,361.2 L 270.8,348.4 L 270.2,335.4 L 267.7,322.5 L 259.0,303.5 L 247.2,286.4 L 232.5,271.7 L 215.3,259.8 L 170.7,236.1 Z" fill="#859173"/>
  <path d="M 26.0,342.0 L 34.2,350.7 L 41.9,359.8 L 49.2,369.2 L 56.1,378.9 L 64.7,389.5 L 73.8,399.5 L 83.6,408.9 L 93.9,417.7 L 83.7,410.1 L 74.1,401.8 L 65.0,392.9 L 56.6,383.3 L 26.0,342.0 Z" fill="#859173"/>
  <path d="M 62.5,250.7 L 80.3,264.5 L 95.7,280.8 L 108.4,299.1 L 118.3,319.4 L 109.3,298.5 L 96.8,279.8 L 81.1,263.7 L 62.5,250.7 Z" fill="#859173"/>
  <path d="M 175.8,187.8 L 187.9,172.1 L 200.8,156.9 L 214.3,142.4 L 228.6,128.6 L 213.3,141.4 L 199.3,155.6 L 186.8,171.1 L 175.8,187.8 Z" fill="#859173"/>
  <path d="M 147.4,349.1 L 160.9,338.6 L 175.3,329.5 L 190.6,321.7 L 206.5,315.4 L 191.0,322.7 L 176.0,330.7 L 161.5,339.5 L 147.4,349.1 Z" fill="#859173"/>
  <path d="M 160.1,190.0 L 160.3,190.1 L 160.4,190.2 L 160.6,190.2 L 160.8,190.2 L 160.9,190.0 L 161.0,189.9 L 161.1,189.7 L 161.0,189.5 L 160.8,188.8 L 160.5,188.2 L 160.3,187.5 L 160.1,186.8 L 159.3,183.4 L 158.8,180.0 L 158.6,176.6 L 158.7,173.1 L 158.1,164.6 L 156.5,156.3 L 153.9,148.3 L 150.4,140.5 L 148.5,137.6 L 146.6,134.7 L 144.6,131.8 L 142.6,128.9 L 141.4,127.2 L 140.3,125.5 L 139.3,123.7 L 138.4,121.8 L 138.1,121.5 L 137.8,121.4 L 137.4,121.3 L 137.0,121.4 L 136.7,121.6 L 136.5,121.9 L 136.4,122.3 L 136.4,122.7 L 136.6,125.4 L 136.9,128.2 L 137.1,131.0 L 137.2,133.7 L 137.9,143.2 L 139.7,152.4 L 142.7,161.4 L 146.8,169.9 L 148.4,172.3 L 150.1,174.6 L 151.9,176.9 L 153.8,179.1 L 155.1,180.8 L 156.3,182.5 L 157.4,184.4 L 158.3,186.3 L 158.8,187.2 L 159.2,188.1 L 159.7,189.0 L 160.1,190.0 Z" fill="#859173"/>
  <path d="M 136.9,336.9 L 136.9,337.0 L 136.9,337.2 L 137.0,337.4 L 137.2,337.5 L 137.4,337.5 L 137.6,337.5 L 137.7,337.4 L 137.8,337.2 L 138.2,336.6 L 138.5,335.9 L 138.9,335.3 L 139.2,334.7 L 141.2,331.8 L 143.3,329.1 L 145.8,326.7 L 148.4,324.4 L 152.7,321.0 L 156.3,316.9 L 159.2,312.2 L 161.1,307.1 L 162.0,303.7 L 162.9,300.3 L 163.7,296.9 L 164.4,293.5 L 164.8,291.4 L 165.3,289.4 L 166.0,287.5 L 166.8,285.6 L 166.8,285.2 L 166.7,284.8 L 166.5,284.5 L 166.2,284.3 L 165.8,284.2 L 165.4,284.2 L 165.1,284.4 L 164.8,284.7 L 163.1,286.7 L 161.3,288.6 L 159.3,290.4 L 157.3,292.2 L 152.3,296.4 L 148.1,301.5 L 144.9,307.2 L 142.7,313.5 L 142.0,316.3 L 141.4,319.1 L 141.0,322.0 L 140.7,324.8 L 140.3,327.0 L 139.8,329.0 L 139.1,331.1 L 138.3,333.1 L 138.0,334.0 L 137.6,335.0 L 137.3,335.9 L 136.9,336.9 Z" fill="#859173"/>
  <path d="M 156.2,177.9 L 153.2,167.4 L 149.8,156.9 L 146.0,146.6 L 141.8,136.5 L 145.1,147.0 L 148.6,157.4 L 152.3,167.7 L 156.2,177.9 Z" fill="#859173"/>
  <path d="M 143.1,325.8 L 147.5,319.2 L 151.5,312.3 L 155.1,305.3 L 158.2,298.0 L 154.2,304.8 L 150.3,311.7 L 146.6,318.7 L 143.1,325.8 Z" fill="#859173"/>
</svg>