<svg xmlns="http://www.w3.org/2000/svg" viewBox="0 0 512 512">
  <rect width="512" height="512" rx="96" fill="#16211b"/>
  <rect x="14" y="14" width="484" height="484" rx="84" fill="none" stroke="#2f4034" stroke-width="6"/>
  <path d="M 294.6,459.7 L 288.3,456.0 L 282.3,452.2 L 276.3,448.1 L 270.5,443.7 L 260.8,435.2 L 252.4,425.4 L 245.2,414.7 L 239.6,403.0 L 236.3,392.3 L 235.0,381.2 L 235.7,370.0 L 238.4,359.1 L 240.9,353.2 L 244.2,347.7 L 248.2,342.7 L 252.8,338.2 L 255.4,336.4 L 258.2,335.0 L 261.2,334.1 L 264.3,333.7 L 270.8,333.1 L 277.3,331.9 L 283.5,330.2 L 289.6,327.9 L 295.5,324.7 L 300.6,320.7 L 305.0,315.9 L 308.5,310.3 L 310.3,307.5 L 312.4,305.0 L 314.8,302.8 L 317.6,301.0 L 317.9,300.8 L 318.0,300.5 L 318.1,300.2 L 318.0,299.9 L 317.8,299.6 L 317.6,299.4 L 317.3,299.3 L 317.0,299.4 L 313.3,300.3 L 309.6,300.9 L 305.8,301.3 L 302.0,301.4 L 295.0,302.1 L 288.3,303.5 L 281.7,305.7 L 275.4,308.8 L 271.2,311.5 L 267.4,314.6 L 263.9,318.1 L 260.7,321.9 L 258.5,324.9 L 256.2,327.8 L 253.8,330.6 L 251.2,333.3 L 248.1,336.7 L 245.1,340.3 L 242.4,344.0 L 239.9,347.9 L 237.7,352.2 L 235.8,356.6 L 234.2,361.1 L 232.9,365.7 L 232.8,365.8 L 232.8,365.9 L 232.7,365.9 L 232.6,365.9 L 232.5,365.9 L 232.4,365.8 L 232.3,365.8 L 232.3,365.7 L 232.2,360.4 L 232.3,355.1 L 232.6,349.8 L 233.2,344.5 L 234.0,337.4 L 235.0,330.3 L 236.3,323.3 L 237.9,316.3 L 240.3,307.0 L 243.1,297.7 L 246.1,288.5 L 249.3,279.4 L 254.5,265.8 L 259.4,252.1 L 264.1,238.4 L 268.5,224.6 L 269.8,219.5 L 271.4,214.5 L 273.3,209.6 L 275.5,204.9 L 277.9,200.9 L 280.9,197.4 L 284.6,194.6 L 288.7,192.4 L 295.1,190.0 L 301.3,187.1 L 307.2,183.7 L 312.8,179.8 L 318.3,174.2 L 322.7,167.8 L 325.9,160.7 L 327.8,153.1 L 328.4,148.7 L 329.5,144.5 L 331.1,140.4 L 333.2,136.6 L 333.4,136.2 L 333.4,135.9 L 333.3,135.5 L 333.0,135.2 L 332.7,135.1 L 332.4,135.0 L 332.0,135.0 L 331.7,135.2 L 328.6,137.5 L 325.2,139.6 L 321.8,141.5 L 318.2,143.1 L 315.3,144.1 L 312.5,145.2 L 309.7,146.5 L 307.0,147.8 L 301.5,150.8 L 296.3,154.3 L 291.5,158.4 L 287.1,163.0 L 283.7,167.5 L 280.9,172.4 L 278.8,177.7 L 277.4,183.2 L 276.8,185.7 L 276.3,188.2 L 275.7,190.8 L 275.2,193.3 L 274.3,196.4 L 273.4,199.4 L 272.5,202.4 L 271.5,205.4 L 270.1,208.8 L 268.9,212.2 L 267.7,215.6 L 266.6,219.1 L 264.6,225.0 L 262.6,230.9 L 260.7,236.8 L 258.9,242.8 L 256.6,248.8 L 254.4,254.8 L 252.1,260.8 L 249.9,266.7 L 247.0,274.7 L 244.1,282.6 L 241.2,290.5 L 238.4,298.5 L 237.0,303.2 L 235.8,307.9 L 234.8,312.7 L 233.9,317.5 L 233.8,317.7 L 233.7,317.9 L 233.4,318.0 L 233.2,318.1 L 232.9,318.0 L 232.7,317.9 L 232.5,317.7 L 232.4,317.5 L 231.4,313.5 L 230.6,309.4 L 230.0,305.3 L 229.6,301.2 L 229.3,296.6 L 228.7,291.9 L 227.9,287.4 L 226.8,282.9 L 224.4,275.7 L 220.8,269.0 L 216.1,263.1 L 210.4,258.1 L 203.9,253.9 L 197.1,250.4 L 189.9,247.6 L 182.4,245.5 L 180.2,245.0 L 178.0,244.5 L 175.7,244.2 L 173.4,243.9 L 171.8,243.7 L 170.1,243.4 L 168.5,242.9 L 167.0,242.3 L 166.7,242.2 L 166.5,242.3 L 166.3,242.4 L 166.1,242.5 L 166.0,242.7 L 166.0,243.0 L 166.1,243.2 L 166.2,243.4 L 171.2,247.5 L 175.6,252.2 L 179.4,257.4 L 182.6,263.1 L 185.4,270.7 L 189.1,277.7 L 193.9,284.1 L 199.6,289.8 L 203.5,292.9 L 207.6,295.7 L 212.0,298.1 L 216.5,300.3 L 219.9,302.3 L 222.9,304.8 L 225.5,307.8 L 227.4,311.3 L 229.0,315.8 L 230.1,320.6 L 230.5,325.4 L 230.3,330.3 L 229.7,334.4 L 229.1,338.5 L 228.6,342.7 L 228.0,346.8 L 227.3,357.1 L 227.4,367.4 L 228.3,377.6 L 230.1,387.8 L 231.8,395.4 L 234.2,402.7 L 237.2,409.9 L 240.8,416.8 L 240.8,416.9 L 240.8,417.1 L 240.8,417.2 L 240.7,417.4 L 240.6,417.4 L 240.4,417.5 L 240.3,417.5 L 240.1,417.4 L 234.3,412.3 L 228.4,407.4 L 222.5,402.6 L 216.3,397.9 L 211.4,393.3 L 207.0,388.1 L 203.3,382.5 L 200.3,376.4 L 195.9,366.4 L 190.5,357.0 L 184.2,348.1 L 177.0,340.0 L 170.1,333.8 L 162.6,328.5 L 154.5,324.1 L 145.9,320.7 L 143.7,319.9 L 141.3,319.2 L 139.0,318.7 L 136.6,318.3 L 136.3,318.3 L 136.1,318.3 L 135.8,318.5 L 135.6,318.7 L 135.5,319.0 L 135.5,319.3 L 135.6,319.6 L 135.8,319.8 L 140.2,324.8 L 143.7,330.4 L 146.4,336.4 L 148.2,342.8 L 150.6,354.0 L 155.3,364.3 L 162.1,373.4 L 170.7,380.9 L 176.4,384.5 L 182.4,387.7 L 188.7,390.3 L 195.1,392.3 L 199.3,393.3 L 203.3,394.8 L 207.2,396.5 L 210.9,398.7 L 214.0,401.0 L 217.0,403.4 L 220.0,405.8 L 223.0,408.3 L 232.3,416.0 L 241.4,424.0 L 250.2,432.3 L 258.7,440.9 L 265.0,446.5 L 271.9,451.3 L 279.2,455.5 L 286.9,458.8 L 288.7,459.4 L 290.5,460.0 L 292.3,460.4 L 294.2,460.8 L 294.4,460.8 L 294.6,460.7 L 294.7,460.6 L 294.8,460.4 L 294.9,460.2 L 294.8,460.0 L 294.7,459.8 L 294.6,459.7 Z" fill="#ece5d3"/>
  <path d="M 340.1,65.3 L 347.9,114.0 L 347.8,113.9 L 347.6,113.9 L 347.5,113.9 L 347.4,114.0 L 341.9,103.2 L 335.2,93.2 L 327.4,84.3 L 318.5,76.5 L 308.7,69.8 L 298.2,64.4 L 286.9,60.4 L 275.0,57.8 L 261.6,57.1 L 248.3,58.1 L 235.2,60.8 L 222.5,65.3 L 209.1,73.1 L 198.0,83.9 L 189.9,97.0 L 185.2,111.9 L 184.2,127.5 L 187.0,142.6 L 193.4,156.6 L 203.1,168.9 L 215.1,179.9 L 227.9,189.8 L 241.5,198.6 L 255.8,206.2 L 256.2,211.9 L 256.2,217.6 L 255.7,223.2 L 254.7,228.8 L 213.5,206.0 L 203.8,199.6 L 195.0,192.1 L 187.1,183.6 L 180.2,174.3 L 174.4,164.0 L 170.4,152.9 L 168.3,141.4 L 168.0,129.5 L 169.0,119.8 L 171.1,110.3 L 174.4,101.3 L 178.8,92.7 L 184.2,84.8 L 190.7,77.7 L 198.0,71.3 L 206.2,65.9 L 223.4,58.0 L 241.6,53.1 L 260.4,51.2 L 279.3,52.4 L 292.0,54.3 L 304.4,57.2 L 316.7,60.9 L 328.6,65.5 L 331.3,66.0 L 334.1,66.2 L 336.8,66.0 L 339.6,65.3 L 340.1,65.3 Z" fill="#859173"/>
  <path d="M 273.2,239.1 L 274.3,233.6 L 275.8,228.3 L 277.9,223.0 L 280.3,218.0 L 292.8,223.9 L 305.0,230.3 L 316.9,237.1 L 328.6,244.3 L 338.1,250.5 L 346.7,257.7 L 354.3,265.7 L 360.9,274.6 L 366.5,284.2 L 370.9,294.4 L 374.1,305.1 L 376.0,316.3 L 376.5,329.3 L 375.1,342.0 L 372.0,354.3 L 367.2,366.0 L 360.9,376.9 L 353.0,386.9 L 343.8,395.8 L 333.2,403.3 L 316.5,411.8 L 298.8,417.7 L 280.4,420.8 L 261.6,421.1 L 260.4,419.6 L 259.4,418.1 L 258.5,416.4 L 257.8,414.7 L 265.9,415.3 L 274.1,415.3 L 282.2,414.7 L 290.3,413.6 L 301.6,410.5 L 312.4,406.0 L 322.5,400.1 L 331.7,392.8 L 339.5,384.8 L 346.0,375.9 L 351.2,366.3 L 355.0,356.1 L 357.4,345.5 L 358.4,334.6 L 357.8,323.6 L 355.8,312.6 L 348.4,296.4 L 338.3,281.9 L 325.8,269.4 L 311.1,259.2 L 273.2,239.1 Z" fill="#859173"/>
  <path d="M 150.1,329.2 L 157.0,336.6 L 163.6,344.3 L 169.8,352.3 L 175.6,360.6 L 182.9,369.6 L 190.8,378.1 L 199.1,386.1 L 207.8,393.6 L 199.2,387.1 L 191.0,380.1 L 183.3,372.5 L 176.1,364.4 L 150.1,329.2 Z" fill="#859173"/>
  <path d="M 181.1,251.5 L 196.2,263.2 L 209.3,277.1 L 220.2,292.7 L 228.6,309.9 L 221.0,292.2 L 210.3,276.3 L 196.9,262.6 L 181.1,251.5 Z" fill="#859173"/>
  <path d="M 277.5,198.0 L 287.8,184.6 L 298.8,171.7 L 310.3,159.3 L 322.4,147.6 L 309.4,158.5 L 297.5,170.6 L 286.9,183.8 L 277.5,198.0 Z" fill="#859173"/>
  <path d="M 253.3,335.2 L 264.9,326.3 L 277.1,318.6 L 290.1,312.0 L 303.6,306.6 L 290.5,312.7 L 277.7,319.6 L 265.3,327.1 L 253.3,335.2 Z" fill="#859173"/>
  <path d="M 264.2,199.8 L 264.3,199.9 L 264.4,200.0 L 264.6,200.0 L 264.8,200.0 L 264.9,199.9 L 265.0,199.7 L 265.0,199.6 L 264.9,199.4 L 264.7,198.8 L 264.5,198.3 L 264.4,197.7 L 264.2,197.1 L 263.5,194.2 L 263.1,191.3 L 262.9,188.4 L 263.0,185.4 L 262.5,178.2 L 261.1,171.2 L 258.9,164.3 L 256.0,157.7 L 254.3,155.2 L 252.7,152.7 L 251.0,150.3 L 249.3,147.8 L 248.2,146.4 L 247.3,144.9 L 246.4,143.4 L 245.7,141.8 L 245.5,141.6 L 245.2,141.4 L 244.9,141.4 L 244.5,141.5 L 244.3,141.6 L 244.1,141.9 L 244.0,142.2 L 244.0,142.5 L 244.2,144.9 L 244.4,147.2 L 244.6,149.6 L 244.7,151.9 L 245.2,160.0 L 246.8,167.9 L 249.3,175.5 L 252.9,182.7 L 254.2,184.8 L 255.7,186.8 L 257.2,188.7 L 258.8,190.5 L 259.9,192.0 L 260.9,193.5 L 261.9,195.1 L 262.6,196.7 L 263.0,197.5 L 263.4,198.2 L 263.8,199.0 L 264.2,199.8 Z" fill="#859173"/>
  <path d="M 244.4,324.8 L 244.4,325.0 L 244.4,325.1 L 244.5,325.2 L 244.7,325.3 L 244.8,325.4 L 245.0,325.3 L 245.1,325.2 L 245.2,325.1 L 245.5,324.6 L 245.8,324.0 L 246.1,323.5 L 246.4,323.0 L 248.1,320.5 L 249.9,318.3 L 252.0,316.2 L 254.2,314.2 L 257.9,311.3 L 261.0,307.8 L 263.4,303.9 L 265.1,299.5 L 265.8,296.6 L 266.5,293.7 L 267.2,290.8 L 267.9,287.9 L 268.2,286.2 L 268.6,284.5 L 269.2,282.8 L 269.9,281.2 L 269.9,280.8 L 269.8,280.5 L 269.6,280.3 L 269.3,280.1 L 269.0,280.0 L 268.7,280.0 L 268.4,280.2 L 268.2,280.4 L 266.7,282.1 L 265.2,283.7 L 263.5,285.3 L 261.8,286.8 L 257.5,290.4 L 254.0,294.7 L 251.2,299.6 L 249.4,304.9 L 248.8,307.3 L 248.3,309.7 L 247.9,312.1 L 247.6,314.6 L 247.3,316.4 L 246.9,318.2 L 246.3,319.9 L 245.7,321.6 L 245.4,322.4 L 245.0,323.2 L 244.7,324.0 L 244.4,324.8 Z" fill="#859173"/>
  <path d="M 260.8,189.6 L 258.3,180.6 L 255.4,171.7 L 252.2,162.9 L 248.6,154.3 L 251.4,163.2 L 254.3,172.1 L 257.5,180.8 L 260.8,189.6 Z" fill="#859173"/>
  <path d="M 249.7,315.4 L 253.4,309.8 L 256.8,303.9 L 259.9,297.9 L 262.6,291.7 L 259.1,297.5 L 255.8,303.4 L 252.7,309.4 L 249.7,315.4 Z" fill="#859173"/>
</svg>